<svg t="1703040057676" class="icon" viewBox="0 0 1024 1024" version="1.1" xmlns="http://www.w3.org/2000/svg" p-id="7911" width="200" height="200"><path d="M421.5 218.9v48.2h-48.2v-48.2h48.2z m-103.3 0v48.2H270v-48.2h48.2z m-103.3 0v48.2h-48.2v-48.2h48.2z m689.3-35.8H119.8v118.4h784.5l-0.1-118.4z m-309.6 324l187.3 88.5V628l-187.3 88.5v-37.2l149.8-67.1v-0.7l-149.8-67.1v-37.3z m-171.5 0V545l-144.3 66.8v0.7l144.3 66.4v37.5l-186.9-90.5V598l186.9-90.9z m149.8-38.9l-90.5 284.4H448l90.5-284.4h34.4z m331.3-114.4H119.8v487h784.5l-0.1-487zM931.8 128c15.2 0 27.5 12.3 27.5 27.5v712.8c0 15.2-12.3 27.5-27.5 27.5H92.2c-15.2 0-27.5-12.3-27.5-27.5V155.6c0-15.2 12.3-27.5 27.5-27.5h839.6z" fill="#D3D5D7" p-id="7912"></path></svg>